# xmcd CD database file
#
# Track frame offsets:
#	150
#	3390
#	21588
#	38828
#	56003
#	77670
#	96835
#	120418
#	137745
#	157478
#	178843
#	201430
#	219135
#
# Disc length: 3273 seconds
#
# Revision: 0
# Processed by: cddbd v1.5.2PL0 Copyright (c) Steve Scherf et al.
# Submitted via: CDex 1.70beta2
#
DISCID=b60cc70d
DTITLE=JABBERLOOP - CHECK THIS OUT!!
DYEAR=2009
DGENRE=Jazz
TTITLE0=PIANO de Bダッシュ
TTITLE1=With all my love,
TTITLE2=スペース大怪獣の逆襲
TTITLE3=Synesthesia ～神の悪戯～
TTITLE4=FLY WITH THE WIND
TTITLE5=LowbitFUNK
TTITLE6=Emozione
TTITLE7=シロクマ
TTITLE8=雪が解ける日に…
TTITLE9=HERE WE GO!!
TTITLE10=WHITE OUT
TTITLE11=軌跡の果て
TTITLE12=荘厳伝説
EXTD=YEAR: 2009
EXTT0=
EXTT1=
EXTT2=
EXTT3=
EXTT4=
EXTT5=
EXTT6=
EXTT7=
EXTT8=
EXTT9=
EXTT10=
EXTT11=
EXTT12=
PLAYORDER=
